<svg version="1.1" id="Layer_1" xmlns="http://www.w3.org/2000/svg" xmlns:xlink="http://www.w3.org/1999/xlink" x="0px" y="0px"
	 width="100%" viewBox="0 0 512 512" enable-background="new 0 0 512 512" xml:space="preserve">
<path fill="#010101" opacity="1.000000" stroke="none" 
	d="
M513.000000,77.000000 
	C513.000000,205.022018 513.000000,333.044037 512.618225,461.666046 
	C512.146973,463.584045 512.296448,464.972412 511.932037,466.209412 
	C506.625763,484.221771 496.259857,498.329742 479.284637,506.841553 
	C473.858124,509.562531 467.779999,510.983978 462.000000,513.000000 
	C325.644653,513.000000 189.289307,513.000000 52.333954,512.618286 
	C50.415974,512.146973 49.027599,512.296509 47.790615,511.932068 
	C29.778177,506.625854 15.670341,496.259796 7.158524,479.284607 
	C4.437518,473.858124 3.016057,467.779968 0.999999,462.000000 
	C1.000000,372.311310 1.000000,282.622650 1.381563,192.334183 
	C2.122133,189.997498 2.325200,188.210449 2.865104,186.531723 
	C6.779975,174.359161 12.659091,163.580887 22.970949,155.370880 
	C31.325394,148.719299 40.226044,143.767960 50.811493,141.874939 
	C52.027416,141.657486 53.212688,139.902100 53.904984,138.591797 
	C54.386112,137.681152 53.988697,136.311157 53.999676,135.146545 
	C54.331329,99.957535 54.605160,64.767784 55.048599,29.580173 
	C55.137646,22.514091 58.063629,16.063723 63.241146,11.589243 
	C68.185280,7.316451 74.363983,4.472203 80.000000,0.999999 
	C173.688675,1.000000 267.377350,1.000000 361.645966,1.364743 
	C366.556061,4.055904 371.542175,5.658448 375.077484,8.862049 
	C382.063080,15.192232 388.382019,22.285192 394.722260,29.292902 
	C401.078644,36.318386 407.070068,43.673023 413.352448,50.767403 
	C414.652588,52.235535 416.523956,54.221439 418.141144,54.229904 
	C438.719574,54.337513 459.299957,54.032795 479.879181,54.083393 
	C483.699097,54.092785 487.564056,54.997475 491.325867,55.851654 
	C502.820740,58.461750 508.780334,66.867706 513.000000,77.000000 
M377.985840,95.024376 
	C377.985840,95.024376 377.916443,95.051666 378.082062,95.791534 
	C383.689972,96.475372 389.297913,97.159210 395.846588,97.977028 
	C407.903564,97.977028 419.960541,97.977028 433.011719,97.977028 
	C412.776642,75.231789 393.243988,53.276070 372.949036,30.463505 
	C372.949036,49.844933 372.759247,67.816353 373.132019,85.776093 
	C373.195679,88.843254 375.665039,91.860481 377.466492,95.205116 
	C377.642212,95.169586 377.817932,95.134064 377.985840,95.024376 
M210.034195,297.412750 
	C200.557602,297.388184 191.078690,297.223389 181.605118,297.380768 
	C173.109894,297.521942 168.267136,301.679108 168.131210,309.469818 
	C167.864410,324.761902 167.894043,340.064178 168.119171,355.357574 
	C168.225113,362.555145 172.442749,367.043488 179.557861,367.262787 
	C190.008072,367.584839 200.479294,367.225006 211.696747,367.468872 
	C217.018829,367.386261 222.373169,367.640076 227.654617,367.133667 
	C233.895157,366.535309 237.838440,362.479645 237.932755,356.272705 
	C238.173218,340.448975 238.166077,324.617401 237.954315,308.792999 
	C237.871109,302.576294 234.084686,298.434967 227.811768,297.813507 
	C222.231369,297.260681 216.553085,297.695923 210.034195,297.412750 
M450.517273,496.731110 
	C457.103516,495.284729 464.198029,494.942078 470.181580,492.186859 
	C488.781647,483.622192 496.891144,467.940033 496.905273,447.986450 
	C496.990295,328.036102 496.947540,208.085678 496.947235,88.135277 
	C496.947235,87.135696 496.981812,86.134171 496.932953,85.136848 
	C496.537231,77.057411 490.997467,71.358994 482.954773,71.068512 
	C478.302399,70.900490 473.634857,71.152847 468.048889,71.079948 
	C455.980377,71.079948 443.911896,71.079948 430.784637,71.079948 
	C437.193115,78.302704 442.844940,84.769852 448.605042,91.139046 
	C455.203278,98.435020 459.091858,106.649155 459.083557,116.769562 
	C458.998657,220.193802 459.035767,323.618134 459.025543,427.042450 
	C459.024780,434.708618 455.948364,437.754486 448.031097,437.798889 
	C435.707153,437.867981 423.382568,437.817322 411.058258,437.817413 
	C409.276794,437.817444 407.495361,437.817413 405.812012,437.817413 
	C401.050568,468.983917 419.559662,495.824066 450.517273,496.731110 
M418.039307,114.146385 
	C407.876099,114.135750 397.712860,114.135101 387.549683,114.112312 
	C368.029510,114.068550 356.855988,102.980408 356.813995,83.522316 
	C356.770508,63.362324 356.804260,43.202160 356.804199,23.042070 
	C356.804199,21.271685 356.804169,19.501301 356.804169,17.092690 
	C354.227417,17.092690 352.274048,17.092691 350.320679,17.092691 
	C263.848877,17.092649 177.377106,17.087843 90.905312,17.097557 
	C77.497902,17.099064 71.041122,23.599810 71.036438,37.064487 
	C71.024963,70.053726 71.032700,103.042969 71.032700,136.032211 
	C71.032700,137.632767 71.032692,139.233322 71.032692,140.859818 
	C91.070671,140.859818 110.513176,140.859818 129.952652,140.859818 
	C130.343719,93.617767 167.784500,65.825844 202.889664,65.666237 
	C236.617950,65.512886 275.540894,91.848061 276.340424,141.070526 
	C277.938171,141.070526 279.567780,141.070526 281.197357,141.070526 
	C301.024231,141.070694 320.852051,140.963623 340.677307,141.142639 
	C345.968323,141.190414 351.383759,141.541641 356.516357,142.729095 
	C386.262146,149.610870 405.085999,173.780212 405.117310,205.064209 
	C405.187531,275.207916 405.139771,345.351746 405.140045,415.495544 
	C405.140045,417.283752 405.140045,419.071960 405.140045,421.005585 
	C409.761353,421.005585 413.879822,421.005585 418.907959,421.253235 
	C426.828308,421.253235 434.748657,421.253235 442.651489,421.253235 
	C442.651489,318.580048 442.651489,216.526077 442.651489,114.331009 
	C434.544312,114.331009 426.749268,114.331009 418.039307,114.146385 
M342.038391,157.230881 
	C341.206360,157.194000 340.374298,157.124893 339.542267,157.124832 
	C248.386078,157.118011 157.229874,157.095505 66.073761,157.177353 
	C61.623985,157.181351 57.027210,157.548294 52.750465,158.689240 
	C30.456923,164.636749 17.211430,182.001541 17.076380,205.108536 
	C16.994570,219.106445 17.159637,233.106445 16.987608,247.102707 
	C16.947105,250.398132 17.866049,251.982330 21.070366,253.339233 
	C52.787643,266.770355 84.403854,280.440033 116.057076,294.022614 
	C127.792130,299.058258 139.549377,304.042175 151.384216,309.087097 
	C155.517822,288.577087 164.721054,281.092529 185.313400,281.091187 
	C198.478561,281.090332 211.652008,280.825287 224.804428,281.234955 
	C229.492294,281.380981 234.491562,282.387848 238.716797,284.357361 
	C248.741089,289.029907 253.699692,297.564117 254.393982,309.009827 
	C256.260162,308.349823 257.819092,307.893219 259.301880,307.258759 
	C269.552216,302.873199 279.792236,298.463440 290.024292,294.035400 
	C296.926300,291.048492 299.039215,291.481537 303.951141,297.848846 
	C304.905914,303.670807 301.885040,306.767303 296.840942,308.871399 
	C283.786438,314.316864 270.838959,320.018921 257.785156,325.466156 
	C255.092621,326.589691 254.050842,328.048340 254.109863,331.037445 
	C254.284195,339.865540 254.323792,348.707275 254.031967,357.530975 
	C253.602142,370.527771 243.849686,382.128265 230.914429,382.904449 
	C213.323959,383.959991 195.584549,384.363037 178.010162,383.328125 
	C161.338776,382.346405 152.045395,370.688293 151.959564,353.794434 
	C151.921478,346.294922 151.810791,338.791077 152.020294,331.297272 
	C152.106628,328.208862 151.208603,326.614288 148.228500,325.346008 
	C106.120338,307.426056 64.075058,289.358368 22.006727,271.344696 
	C20.577635,270.732758 19.067295,270.310547 17.314892,269.702820 
	C17.203175,271.243652 17.091351,272.066833 17.091244,272.890015 
	C17.083565,331.887634 17.017143,390.885406 17.149994,449.882721 
	C17.172880,460.046021 19.892616,469.591156 26.113079,477.928375 
	C36.204166,491.453400 50.053692,496.914276 66.475555,496.915161 
	C172.471298,496.920807 278.467041,496.918671 384.462769,496.911987 
	C385.960236,496.911896 387.457733,496.819702 389.888733,496.914703 
	C395.966766,496.914703 402.044830,496.914703 408.526306,496.914703 
	C408.009918,495.934753 407.878906,495.447632 407.570709,495.135468 
	C394.174500,481.565369 388.820953,465.140717 388.907562,446.227081 
	C389.167633,389.422394 389.001190,332.615723 389.001190,275.809845 
	C389.001190,273.913849 389.001190,272.017822 389.001190,269.202240 
	C380.271820,273.070404 372.572998,276.481934 364.155060,279.999359 
	C355.282593,283.768585 346.300415,287.303772 337.578125,291.393280 
	C332.193634,293.917816 328.015381,293.161133 324.159058,287.907837 
	C323.029236,282.266479 325.429688,278.847748 330.623566,276.646149 
	C342.495819,271.613678 354.258698,266.323090 366.796143,261.015991 
	C373.086029,258.383636 379.336853,255.651413 385.684784,253.167480 
	C388.267181,252.156998 389.093231,250.664780 389.068817,247.917007 
	C388.934082,232.753342 389.348816,217.577255 388.889648,202.426193 
	C388.448914,187.884399 382.499878,175.820496 370.768066,166.755127 
	C362.523987,160.384781 353.168976,157.710007 342.038391,157.230881 
M258.098602,141.047440 
	C258.634460,139.719589 259.674103,138.375885 259.632904,137.066177 
	C258.463470,99.888031 223.442627,74.182938 187.528717,84.057976 
	C162.729919,90.876747 144.328918,116.487083 146.952667,140.820404 
	C153.827667,140.820404 160.731064,140.820404 167.610748,140.820404 
	C170.937637,116.847885 182.475983,104.381363 202.251648,103.577461 
	C209.929169,103.265358 217.072922,105.430252 223.318451,109.975609 
	C233.749878,117.567368 238.249680,128.209137 238.234421,141.069031 
	C244.885712,141.069031 251.028366,141.069031 258.098602,141.047440 
M185.352234,132.109909 
	C184.897324,134.959457 184.442413,137.809006 183.973740,140.744781 
	C197.128860,140.744781 209.514313,140.744781 221.891815,140.744781 
	C221.962494,130.042450 216.533249,122.295891 207.686432,120.143166 
	C198.591522,117.930077 190.369827,122.140892 185.352234,132.109909 
z"/>
<path fill="#FFFFFF" opacity="1.000000" stroke="none" 
	d="
M79.531342,0.999999 
	C74.363983,4.472203 68.185280,7.316451 63.241146,11.589243 
	C58.063629,16.063723 55.137646,22.514091 55.048599,29.580173 
	C54.605160,64.767784 54.331329,99.957535 53.999676,135.146545 
	C53.988697,136.311157 54.386112,137.681152 53.904984,138.591797 
	C53.212688,139.902100 52.027416,141.657486 50.811493,141.874939 
	C40.226044,143.767960 31.325394,148.719299 22.970949,155.370880 
	C12.659091,163.580887 6.779975,174.359161 2.865104,186.531723 
	C2.325200,188.210449 2.122133,189.997498 1.381563,191.867203 
	C1.000000,128.436630 1.000000,64.873268 1.000000,1.000000 
	C27.020075,1.000000 53.041378,1.000000 79.531342,0.999999 
z"/>
<path fill="#FFFFFF" opacity="1.000000" stroke="none" 
	d="
M513.000000,76.531342 
	C508.780334,66.867706 502.820740,58.461750 491.325867,55.851654 
	C487.564056,54.997475 483.699097,54.092785 479.879181,54.083393 
	C459.299957,54.032795 438.719574,54.337513 418.141144,54.229904 
	C416.523956,54.221439 414.652588,52.235535 413.352448,50.767403 
	C407.070068,43.673023 401.078644,36.318386 394.722260,29.292902 
	C388.382019,22.285192 382.063080,15.192232 375.077484,8.862049 
	C371.542175,5.658448 366.556061,4.055904 362.112946,1.364743 
	C412.236145,1.000000 462.472290,1.000000 513.000000,1.000000 
	C513.000000,26.020140 513.000000,51.041412 513.000000,76.531342 
z"/>
<path fill="#FFFFFF" opacity="1.000000" stroke="none" 
	d="
M0.999999,462.468658 
	C3.016057,467.779968 4.437518,473.858124 7.158524,479.284607 
	C15.670341,496.259796 29.778177,506.625854 47.790615,511.932068 
	C49.027599,512.296509 50.415974,512.146973 51.866970,512.618286 
	C35.073246,513.000000 18.146490,513.000000 1.000000,513.000000 
	C1.000000,496.313080 1.000000,479.625214 0.999999,462.468658 
z"/>
<path fill="#FFFFFF" opacity="1.000000" stroke="none" 
	d="
M462.468658,513.000000 
	C467.779999,510.983978 473.858124,509.562531 479.284637,506.841553 
	C496.259857,498.329742 506.625763,484.221771 511.932037,466.209412 
	C512.296448,464.972412 512.146973,463.584045 512.618225,462.133026 
	C513.000000,478.926758 513.000000,495.853516 513.000000,513.000000 
	C496.313080,513.000000 479.625214,513.000000 462.468658,513.000000 
z"/>
<path fill="#957755" opacity="1.000000" stroke="none" 
	d="
M324.310760,288.709106 
	C328.015381,293.161133 332.193634,293.917816 337.578125,291.393280 
	C346.300415,287.303772 355.282593,283.768585 364.830292,280.239502 
	C365.670349,282.445129 365.978210,284.410553 365.979156,286.376129 
	C366.005127,341.754822 365.866638,397.134064 366.082794,452.511902 
	C366.146423,468.819092 373.128967,482.163025 385.789062,492.532104 
	C387.113281,493.616699 387.912445,495.342285 388.955200,496.770508 
	C387.457733,496.819702 385.960236,496.911896 384.462769,496.911987 
	C278.467041,496.918671 172.471298,496.920807 66.475555,496.915161 
	C50.053692,496.914276 36.204166,491.453400 26.113079,477.928375 
	C19.892616,469.591156 17.172880,460.046021 17.149994,449.882721 
	C17.017143,390.885406 17.083565,331.887634 17.091244,272.890015 
	C17.091351,272.066833 17.203175,271.243652 17.314892,269.702820 
	C19.067295,270.310547 20.577635,270.732758 22.006727,271.344696 
	C64.075058,289.358368 106.120338,307.426056 148.228500,325.346008 
	C151.208603,326.614288 152.106628,328.208862 152.020294,331.297272 
	C151.810791,338.791077 151.921478,346.294922 151.959564,353.794434 
	C152.045395,370.688293 161.338776,382.346405 178.010162,383.328125 
	C195.584549,384.363037 213.323959,383.959991 230.914429,382.904449 
	C243.849686,382.128265 253.602142,370.527771 254.031967,357.530975 
	C254.323792,348.707275 254.284195,339.865540 254.109863,331.037445 
	C254.050842,328.048340 255.092621,326.589691 257.785156,325.466156 
	C270.838959,320.018921 283.786438,314.316864 296.840942,308.871399 
	C301.885040,306.767303 304.905914,303.670807 304.316223,297.396362 
	C311.224426,294.198944 317.767609,291.454041 324.310760,288.709106 
z"/>
<path fill="#6B563C" opacity="1.000000" stroke="none" 
	d="
M324.234924,288.308472 
	C317.767609,291.454041 311.224426,294.198944 304.303986,296.973145 
	C299.039215,291.481537 296.926300,291.048492 290.024292,294.035400 
	C279.792236,298.463440 269.552216,302.873199 259.301880,307.258759 
	C257.819092,307.893219 256.260162,308.349823 254.393982,309.009827 
	C253.699692,297.564117 248.741089,289.029907 238.716797,284.357361 
	C234.491562,282.387848 229.492294,281.380981 224.804428,281.234955 
	C211.652008,280.825287 198.478561,281.090332 185.313400,281.091187 
	C164.721054,281.092529 155.517822,288.577087 151.384216,309.087097 
	C139.549377,304.042175 127.792130,299.058258 116.057076,294.022614 
	C84.403854,280.440033 52.787643,266.770355 21.070366,253.339233 
	C17.866049,251.982330 16.947105,250.398132 16.987608,247.102707 
	C17.159637,233.106445 16.994570,219.106445 17.076380,205.108536 
	C17.211430,182.001541 30.456923,164.636749 52.750465,158.689240 
	C57.027210,157.548294 61.623985,157.181351 66.073761,157.177353 
	C157.229874,157.095505 248.386078,157.118011 339.542267,157.124832 
	C340.374298,157.124893 341.206360,157.194000 342.563965,157.623810 
	C346.058624,160.854523 349.344116,163.431213 351.939941,166.576981 
	C361.312347,177.935089 366.255127,190.890717 366.063019,205.836685 
	C365.826111,224.267166 366.044403,242.703522 366.066010,261.137329 
	C354.258698,266.323090 342.495819,271.613678 330.623566,276.646149 
	C325.429688,278.847748 323.029236,282.266479 324.234924,288.308472 
z"/>
<path fill="#EBE4DC" opacity="1.000000" stroke="none" 
	d="
M417.998291,421.005585 
	C413.879822,421.005585 409.761353,421.005585 405.140045,421.005585 
	C405.140045,419.071960 405.140045,417.283752 405.140045,415.495544 
	C405.139771,345.351746 405.187531,275.207916 405.117310,205.064209 
	C405.085999,173.780212 386.262146,149.610870 356.516357,142.729095 
	C351.383759,141.541641 345.968323,141.190414 340.677307,141.142639 
	C320.852051,140.963623 301.024231,141.070694 281.197357,141.070526 
	C279.567780,141.070526 277.938171,141.070526 276.340424,141.070526 
	C275.540894,91.848061 236.617950,65.512886 202.889664,65.666237 
	C167.784500,65.825844 130.343719,93.617767 129.952652,140.859818 
	C110.513176,140.859818 91.070671,140.859818 71.032692,140.859818 
	C71.032692,139.233322 71.032700,137.632767 71.032700,136.032211 
	C71.032700,103.042969 71.024963,70.053726 71.036438,37.064487 
	C71.041122,23.599810 77.497902,17.099064 90.905312,17.097557 
	C177.377106,17.087843 263.848877,17.092649 350.320679,17.092691 
	C352.274048,17.092691 354.227417,17.092690 356.804169,17.092690 
	C356.804169,19.501301 356.804199,21.271685 356.804199,23.042070 
	C356.804260,43.202160 356.770508,63.362324 356.813995,83.522316 
	C356.855988,102.980408 368.029510,114.068550 387.549683,114.112312 
	C397.712860,114.135101 407.876099,114.135750 418.494446,114.686066 
	C418.962372,212.197769 418.989716,309.169800 418.945709,406.141785 
	C418.943481,411.096527 418.328186,416.050995 417.998291,421.005585 
z"/>
<path fill="#5E4B37" opacity="1.000000" stroke="none" 
	d="
M468.974121,71.216019 
	C473.634857,71.152847 478.302399,70.900490 482.954773,71.068512 
	C490.997467,71.358994 496.537231,77.057411 496.932953,85.136848 
	C496.981812,86.134171 496.947235,87.135696 496.947235,88.135277 
	C496.947540,208.085678 496.990295,328.036102 496.905273,447.986450 
	C496.891144,467.940033 488.781647,483.622192 470.181580,492.186859 
	C464.198029,494.942078 457.103516,495.284729 450.333923,496.196289 
	C452.576813,493.422516 455.148651,491.320557 457.404816,488.921722 
	C468.979248,476.615417 473.024200,461.629700 473.018555,445.127167 
	C472.980530,334.227112 473.052612,223.327026 472.930511,112.427124 
	C472.915283,98.608879 475.063721,84.489334 468.974121,71.216019 
z"/>
<path fill="#6A553C" opacity="1.000000" stroke="none" 
	d="
M468.511505,71.147980 
	C475.063721,84.489334 472.915283,98.608879 472.930511,112.427124 
	C473.052612,223.327026 472.980530,334.227112 473.018555,445.127167 
	C473.024200,461.629700 468.979248,476.615417 457.404816,488.921722 
	C455.148651,491.320557 452.576813,493.422516 450.006561,496.004639 
	C419.559662,495.824066 401.050568,468.983917 405.812012,437.817413 
	C407.495361,437.817413 409.276794,437.817444 411.058258,437.817413 
	C423.382568,437.817322 435.707153,437.867981 448.031097,437.798889 
	C455.948364,437.754486 459.024780,434.708618 459.025543,427.042450 
	C459.035767,323.618134 458.998657,220.193802 459.083557,116.769562 
	C459.091858,106.649155 455.203278,98.435020 448.605042,91.139046 
	C442.844940,84.769852 437.193115,78.302704 430.784637,71.079948 
	C443.911896,71.079948 455.980377,71.079948 468.511505,71.147980 
z"/>
<path fill="#D8CABC" opacity="1.000000" stroke="none" 
	d="
M418.453125,421.129395 
	C418.328186,416.050995 418.943481,411.096527 418.945709,406.141785 
	C418.989716,309.169800 418.962372,212.197769 418.951874,114.778374 
	C426.749268,114.331009 434.544312,114.331009 442.651489,114.331009 
	C442.651489,216.526077 442.651489,318.580048 442.651489,421.253235 
	C434.748657,421.253235 426.828308,421.253235 418.453125,421.129395 
z"/>
<path fill="#7F6749" opacity="1.000000" stroke="none" 
	d="
M389.421967,496.842590 
	C387.912445,495.342285 387.113281,493.616699 385.789062,492.532104 
	C373.128967,482.163025 366.146423,468.819092 366.082794,452.511902 
	C365.866638,397.134064 366.005127,341.754822 365.979156,286.376129 
	C365.978210,284.410553 365.670349,282.445129 365.189850,280.186523 
	C372.572998,276.481934 380.271820,273.070404 389.001190,269.202240 
	C389.001190,272.017822 389.001190,273.913849 389.001190,275.809845 
	C389.001190,332.615723 389.167633,389.422394 388.907562,446.227081 
	C388.820953,465.140717 394.174500,481.565369 407.570709,495.135468 
	C407.878906,495.447632 408.009918,495.934753 408.526306,496.914703 
	C402.044830,496.914703 395.966766,496.914703 389.421967,496.842590 
z"/>
<path fill="#FCB455" opacity="1.000000" stroke="none" 
	d="
M257.634827,141.058228 
	C251.028366,141.069031 244.885712,141.069031 238.234421,141.069031 
	C238.249680,128.209137 233.749878,117.567368 223.318451,109.975609 
	C217.072922,105.430252 209.929169,103.265358 202.251648,103.577461 
	C182.475983,104.381363 170.937637,116.847885 167.610748,140.820404 
	C160.731064,140.820404 153.827667,140.820404 146.952667,140.820404 
	C144.328918,116.487083 162.729919,90.876747 187.528717,84.057976 
	C223.442627,74.182938 258.463470,99.888031 259.632904,137.066177 
	C259.674103,138.375885 258.634460,139.719589 257.634827,141.058228 
z"/>
<path fill="#FEB656" opacity="1.000000" stroke="none" 
	d="
M210.941574,367.155701 
	C200.479294,367.225006 190.008072,367.584839 179.557861,367.262787 
	C172.442749,367.043488 168.225113,362.555145 168.119171,355.357574 
	C167.894043,340.064178 167.864410,324.761902 168.131210,309.469818 
	C168.267136,301.679108 173.109894,297.521942 181.605118,297.380768 
	C191.078690,297.223389 200.557602,297.388184 210.515640,297.893738 
	C211.998260,303.846924 213.628235,309.291901 213.866394,314.797089 
	C214.326248,325.427063 213.878098,336.092926 214.044006,346.740204 
	C214.153259,353.752258 214.155518,360.679565 210.941574,367.155701 
z"/>
<path fill="#5D4A35" opacity="1.000000" stroke="none" 
	d="
M366.431091,261.076660 
	C366.044403,242.703522 365.826111,224.267166 366.063019,205.836685 
	C366.255127,190.890717 361.312347,177.935089 351.939941,166.576981 
	C349.344116,163.431213 346.058624,160.854523 343.021149,157.710358 
	C353.168976,157.710007 362.523987,160.384781 370.768066,166.755127 
	C382.499878,175.820496 388.448914,187.884399 388.889648,202.426193 
	C389.348816,217.577255 388.934082,232.753342 389.068817,247.917007 
	C389.093231,250.664780 388.267181,252.156998 385.684784,253.167480 
	C379.336853,255.651413 373.086029,258.383636 366.431091,261.076660 
z"/>
<path fill="#B2997B" opacity="1.000000" stroke="none" 
	d="
M377.023041,94.900780 
	C375.665039,91.860481 373.195679,88.843254 373.132019,85.776093 
	C372.759247,67.816353 372.949036,49.844933 372.949036,30.463505 
	C393.243988,53.276070 412.776642,75.231789 433.011719,97.977028 
	C419.960541,97.977028 407.903564,97.977028 395.127502,97.631432 
	C388.911102,96.541115 383.413757,95.796394 377.916443,95.051666 
	C377.916443,95.051666 377.985840,95.024376 377.908020,94.897308 
	C377.561157,94.813751 377.292084,94.857269 377.023041,94.900780 
z"/>
<path fill="#FBA533" opacity="1.000000" stroke="none" 
	d="
M211.319153,367.312286 
	C214.155518,360.679565 214.153259,353.752258 214.044006,346.740204 
	C213.878098,336.092926 214.326248,325.427063 213.866394,314.797089 
	C213.628235,309.291901 211.998260,303.846924 210.957550,298.034882 
	C216.553085,297.695923 222.231369,297.260681 227.811768,297.813507 
	C234.084686,298.434967 237.871109,302.576294 237.954315,308.792999 
	C238.166077,324.617401 238.173218,340.448975 237.932755,356.272705 
	C237.838440,362.479645 233.895157,366.535309 227.654617,367.133667 
	C222.373169,367.640076 217.018829,367.386261 211.319153,367.312286 
z"/>
<path fill="#E9E2DA" opacity="1.000000" stroke="none" 
	d="
M185.522034,131.758881 
	C190.369827,122.140892 198.591522,117.930077 207.686432,120.143166 
	C216.533249,122.295891 221.962494,130.042450 221.891815,140.744781 
	C209.514313,140.744781 197.128860,140.744781 183.973740,140.744781 
	C184.442413,137.809006 184.897324,134.959457 185.522034,131.758881 
z"/>
<path fill="#DED6CC" opacity="1.000000" stroke="none" 
	d="
M377.999268,95.421600 
	C383.413757,95.796394 388.911102,96.541115 394.657104,97.564438 
	C389.297913,97.159210 383.689972,96.475372 377.999268,95.421600 
z"/>
<path fill="#DED6CC" opacity="1.000000" stroke="none" 
	d="
M377.244751,95.052948 
	C377.292084,94.857269 377.561157,94.813751 377.911926,94.934387 
	C377.817932,95.134064 377.642212,95.169586 377.244751,95.052948 
z"/>
</svg>